<?xml version="1.0" encoding="UTF-8" standalone="no"?>
<svg
   xmlns:dc="http://purl.org/dc/elements/1.1/"
   xmlns:cc="http://creativecommons.org/ns#"
   xmlns:rdf="http://www.w3.org/1999/02/22-rdf-syntax-ns#"
   xmlns:svg="http://www.w3.org/2000/svg"
   xmlns="http://www.w3.org/2000/svg"
   xmlns:sodipodi="http://sodipodi.sourceforge.net/DTD/sodipodi-0.dtd"
   xmlns:inkscape="http://www.inkscape.org/namespaces/inkscape"
   viewBox="0 0 24 24"
   fill="white"
   width="36px"
   height="36px"
   version="1.1"
   id="svg6"
   sodipodi:docname="save_image.svg"
   inkscape:version="1.0.1 (3bc2e813f5, 2020-09-07)"
   inkscape:export-filename="D:\GitHub\Transimage\icons\save_image.png"
   inkscape:export-xdpi="94.931297"
   inkscape:export-ydpi="94.931297">
  <metadata
     id="metadata12">
    <rdf:RDF>
      <cc:Work
         rdf:about="">
        <dc:format>image/svg+xml</dc:format>
        <dc:type
           rdf:resource="http://purl.org/dc/dcmitype/StillImage" />
        <dc:title></dc:title>
      </cc:Work>
    </rdf:RDF>
  </metadata>
  <defs
     id="defs10" />
  <sodipodi:namedview
     pagecolor="#919191"
     bordercolor="#666666"
     borderopacity="1"
     objecttolerance="10"
     gridtolerance="10"
     guidetolerance="10"
     inkscape:pageopacity="0"
     inkscape:pageshadow="2"
     inkscape:window-width="1920"
     inkscape:window-height="1017"
     id="namedview8"
     showgrid="false"
     inkscape:zoom="11.805556"
     inkscape:cx="22.359847"
     inkscape:cy="19.658866"
     inkscape:window-x="-8"
     inkscape:window-y="-8"
     inkscape:window-maximized="1"
     inkscape:current-layer="svg6" />
  <path
     d="M0 0h24v24H0V0z"
     fill="none"
     id="path2" />
  <path
     d="M19 5v14H5V5h14m0-2H5c-1.1 0-2 .9-2 2v14c0 1.1.9 2 2 2h14c1.1 0 2-.9 2-2V5c0-1.1-.9-2-2-2zm-4.86 8.86l-3 3.87L9 13.14 6 17h12l-3.86-5.14z"
     id="path4" />
  <path
     d="M 10.207843,5.9647059 H 6.7160788 c -0.322989,0 -0.581961,0.2731765 -0.581961,0.6070588 v 4.2494113 c 0,0.333882 0.258972,0.607059 0.581961,0.607059 h 4.0737252 c 0.320078,0 0.581961,-0.273177 0.581961,-0.607059 V 7.1788235 Z M 8.7529408,10.821176 c -0.483027,0 -0.872941,-0.40673 -0.872941,-0.9105876 0,-0.503859 0.389914,-0.910589 0.872941,-0.910589 0.483028,0 0.872941,0.40673 0.872941,0.910589 0,0.5038576 -0.389913,0.9105876 -0.872941,0.9105876 z M 9.6258818,7.7858823 H 6.7160788 V 6.5717647 h 2.909803 z"
     id="path4-7"
     style="stroke-width:0.297189" />
</svg>
