<?xml version="1.0" encoding="UTF-8" standalone="no"?>
<svg
   xmlns:dc="http://purl.org/dc/elements/1.1/"
   xmlns:cc="http://creativecommons.org/ns#"
   xmlns:rdf="http://www.w3.org/1999/02/22-rdf-syntax-ns#"
   xmlns:svg="http://www.w3.org/2000/svg"
   xmlns="http://www.w3.org/2000/svg"
   xmlns:sodipodi="http://sodipodi.sourceforge.net/DTD/sodipodi-0.dtd"
   xmlns:inkscape="http://www.inkscape.org/namespaces/inkscape"
   viewBox="0 0 24 24"
   fill="white"
   width="36px"
   height="36px"
   version="1.1"
   id="svg6"
   sodipodi:docname="save_image.svg"
   inkscape:version="1.0.1 (3bc2e813f5, 2020-09-07)"
   inkscape:export-filename="D:\GitHub\Transimage\icons\save_image.png"
   inkscape:export-xdpi="94.931297"
   inkscape:export-ydpi="94.931297">
  <metadata
     id="metadata12">
    <rdf:RDF>
      <cc:Work
         rdf:about="">
        <dc:format>image/svg+xml</dc:format>
        <dc:type
           rdf:resource="http://purl.org/dc/dcmitype/StillImage" />
        <dc:title />
      </cc:Work>
    </rdf:RDF>
  </metadata>
  <defs
     id="defs10" />
  <sodipodi:namedview
     pagecolor="#303030"
     bordercolor="#666666"
     borderopacity="1"
     objecttolerance="10"
     gridtolerance="10"
     guidetolerance="10"
     inkscape:pageopacity="0"
     inkscape:pageshadow="2"
     inkscape:window-width="1920"
     inkscape:window-height="1017"
     id="namedview8"
     showgrid="false"
     inkscape:zoom="16.695577"
     inkscape:cx="4.2121992"
     inkscape:cy="18.779336"
     inkscape:window-x="-8"
     inkscape:window-y="-8"
     inkscape:window-maximized="1"
     inkscape:current-layer="svg6"
     inkscape:document-rotation="0" />
  <path
     d="M0 0h24v24H0z"
     fill="none"
     id="path2" />
  <path
     d="M21 19V5c0-1.1-.9-2-2-2H5c-1.1 0-2 .9-2 2v14c0 1.1.9 2 2 2h14c1.1 0 2-.9 2-2zM8.5 13.5l2.5 3.01L14.5 12l4.5 6H5l3.5-4.5z"
     id="path4" />
  <path
     d="M 10.289794,4.3981799 H 6.036358 c -0.3934429,0 -0.7089062,0.319008 -0.7089062,0.708906 V 10.06943 c 0,0.389898 0.3154633,0.708906 0.7089062,0.708906 h 4.962343 c 0.389898,0 0.708906,-0.319008 0.708906,-0.708906 V 5.8159919 Z M 8.5175298,10.06943 c -0.5883921,0 -1.0633594,-0.4749671 -1.0633594,-1.0633601 0,-0.588392 0.4749673,-1.063359 1.0633594,-1.063359 0.5883918,0 1.063359,0.474967 1.063359,1.063359 0,0.588393 -0.4749672,1.0633601 -1.063359,1.0633601 z M 9.5808888,6.5248989 H 6.036358 v -1.417813 h 3.5445308 z"
     id="path4-0"
     style="fill:#1e1e1e;fill-opacity:1;fill-rule:evenodd;stroke-width:0.354453" />
</svg>
